<svg width="33" height="33" viewBox="0 0 33 33" fill="none" xmlns="http://www.w3.org/2000/svg">
<circle cx="16.5" cy="16.5" r="16.5" fill="#FFF6BE"/>
<circle cx="16.5" cy="16.5" r="13.5" fill="#FDD800"/>
<path d="M9.90194 15.7971C9.57402 15.7981 9.25307 15.8918 8.97621 16.0675C8.69935 16.2432 8.47789 16.4938 8.33747 16.7901C8.19704 17.0864 8.14338 17.4164 8.18269 17.742C8.22201 18.0675 8.35269 18.3753 8.55962 18.6297L12.9709 24.0335C13.1282 24.2288 13.3298 24.3838 13.559 24.4855C13.7882 24.5872 14.0384 24.6328 14.2887 24.6184C14.8241 24.5897 15.3075 24.3033 15.6157 23.8323L24.7791 9.07473C24.7806 9.07226 24.7822 9.06982 24.7838 9.06742C24.8698 8.93541 24.8419 8.67379 24.6644 8.50944C24.6157 8.46431 24.5582 8.42963 24.4955 8.40755C24.4329 8.38547 24.3664 8.37645 24.3001 8.38105C24.2338 8.38565 24.1692 8.40376 24.1102 8.43428C24.0512 8.4648 23.999 8.50708 23.957 8.55851C23.9537 8.56256 23.9503 8.56654 23.9468 8.57046L14.7054 19.0118C14.6703 19.0516 14.6276 19.0839 14.5798 19.107C14.532 19.1301 14.4801 19.1435 14.4271 19.1463C14.3742 19.1492 14.3211 19.1415 14.2712 19.1237C14.2212 19.1059 14.1752 19.0783 14.136 19.0426L11.0689 16.2516C10.7504 15.9596 10.3341 15.7975 9.90194 15.7971Z" fill="black"/>
</svg>
